<svg xmlns="http://www.w3.org/2000/svg" fill="none" viewBox="0 0 394 80"><path fill="#000" d="M262 0h68.5v12.2h-28.8v66.3h-11.4V12.2H262V0ZM149 0v12.2H88v12.2h27.5v54.1h11.4V24.4H149V0ZM183 0v66.3h-11.4V0h11.4ZM203 0v66.3h-11.4V0h11.4ZM290 0v12.2h-28.8v12.2h17.1v12.2h-17.1v12.2h17.1v17.5h11.4V0h11.4ZM348 0v66.3h-11.4V0h11.4ZM381 0v12.2h-17.1v54.1h-11.4V12.2H335V0h46Z"/><path fill="url(#paint0_linear_1_2)" d="M81.5 4.5v71H70.1V4.5h11.4ZM43.5 4.5v71H32.1V4.5h11.4ZM4.5 4.5v71H0V0h11.4v4.5Z"/><defs><linearGradient id="paint0_linear_1_2" x1="109" x2="144.5" y1="116.5" y2="160.5" gradientUnits="userSpaceOnUse"><stop stopColor="#fff"/><stop offset="1" stopColor="#fff" stopOpacity="0"/></linearGradient></defs></svg>